<svg width="112" height="126" viewBox="0 0 112 126" fill="none" xmlns="http://www.w3.org/2000/svg">
<mask id="mask0_2084_2422" style="mask-type:alpha" maskUnits="userSpaceOnUse" x="0" y="0" width="112" height="126">
<path d="M56 125.563C40.4635 123.358 26.2445 115.621 15.9564 103.772C5.66836 91.9229 0.00243966 76.7589 3.11657e-05 61.0668V38.8428C-0.00552208 36.0289 0.731144 33.2632 2.13571 30.8249C3.54028 28.3866 5.56308 26.3618 8.00003 24.9548L48 2.10684C50.417 0.726193 53.1524 0 55.936 0C58.7196 0 61.455 0.726193 63.872 2.10684L104 24.9548C106.437 26.3618 108.46 28.3866 109.864 30.8249C111.269 33.2632 112.006 36.0289 112 38.8428V61.0508C112.005 76.7466 106.342 91.9162 96.0527 103.769C85.7637 115.622 71.5406 123.361 56 125.563Z" fill="black"/>
</mask>
<g mask="url(#mask0_2084_2422)">
<path d="M49.0351 -11.0882C47.5926 -10.68 46.2061 -10.0935 44.9074 -9.34206L-1.86115 17.4691C-4.70592 19.1201 -7.06722 21.4961 -8.70683 24.3573C-10.3465 27.2186 -11.2064 30.464 -11.1999 33.766V59.8449C-11.1999 60.0514 -11.1999 60.2392 -11.1999 60.4457C-1.67183 67.6118 10.2185 70.8507 22.0422 69.5008C33.8659 68.1509 44.7308 62.314 52.4176 53.1826C60.1043 44.0511 64.0329 32.3141 63.4007 20.369C62.7686 8.42383 57.6235 -2.82801 49.0164 -11.0882H49.0351Z" fill="#6042FF"/>
<path d="M95.9981 93.5628C94.2743 93.5707 92.5992 94.1351 91.2222 95.1721C89.8452 96.2091 88.8399 97.6631 88.3562 99.3176C87.8724 100.972 87.936 102.739 88.5375 104.354C89.1389 105.97 90.2461 107.348 91.6941 108.283C95.5371 104.632 98.922 100.527 101.774 96.0588C101.03 95.2739 100.135 94.6481 99.1418 94.2191C98.149 93.7901 97.0796 93.5668 95.9981 93.5628Z" fill="white"/>
</g>
<g filter="url(#filter0_b_2084_2422)">
<path d="M56 125.563C40.4635 123.358 26.2445 115.621 15.9564 103.772C5.66836 91.9229 0.00243966 76.7589 3.11657e-05 61.0668V38.8428C-0.00552208 36.0289 0.731144 33.2632 2.13571 30.8249C3.54028 28.3866 5.56308 26.3618 8.00003 24.9548L48 2.10684C50.417 0.726193 53.1524 0 55.936 0C58.7196 0 61.455 0.726193 63.872 2.10684L104 24.9548C106.437 26.3618 108.46 28.3866 109.864 30.8249C111.269 33.2632 112.006 36.0289 112 38.8428V61.0508C112.005 76.7466 106.342 91.9162 96.0527 103.769C85.7637 115.622 71.5406 123.361 56 125.563Z" fill="black" fill-opacity="0.05"/>
<path d="M0.77781 38.8428L0.777807 38.8413C0.772524 36.1641 1.47338 33.5329 2.80967 31.2131C4.14565 28.8939 6.06952 26.9679 8.38727 25.6294C8.38782 25.629 8.38837 25.6287 8.38891 25.6284L48.3858 2.78221L48 2.10684L48.3858 2.7822C50.6853 1.46867 53.2877 0.777778 55.936 0.777778C58.5842 0.777778 61.1867 1.46867 63.4862 2.7822L63.4871 2.78274L103.611 25.6284C103.612 25.6288 103.612 25.6292 103.613 25.6296C105.931 26.9681 107.854 28.894 109.19 31.2131C110.527 33.5329 111.227 36.1641 111.222 38.8413V38.8428V61.0508V61.051C111.227 76.5594 105.632 91.5479 95.4654 103.259C85.3233 114.943 71.3126 122.581 56.0001 124.777C40.6916 122.578 26.6849 114.942 16.5437 103.262C6.37849 91.5545 0.780217 76.5715 0.777809 61.0668C0.777809 61.0668 0.777809 61.0667 0.777809 61.0667L0.77781 38.8428Z" stroke="url(#paint0_linear_2084_2422)" stroke-width="1.55556"/>
</g>
<path d="M55.999 107.531C44.9192 105.957 34.7772 100.445 27.431 92.0024C20.0849 83.5602 16.0264 72.7537 15.999 61.5628V42.8428C16.0002 41.6693 16.3116 40.517 16.9017 39.5026C17.4917 38.4882 18.3395 37.6479 19.359 37.0668L52.687 18.0108C53.6966 17.4372 54.8378 17.1356 55.999 17.1356C57.1602 17.1356 58.3014 17.4372 59.311 18.0108L92.639 37.0668C93.6585 37.6479 94.5063 38.4882 95.0963 39.5026C95.6864 40.517 95.9978 41.6693 95.999 42.8428V61.4668C95.9981 72.6752 91.9512 83.5065 84.6023 91.9695C77.2534 100.432 67.0965 105.958 55.999 107.531Z" fill="black" fill-opacity="0.4"/>
<g filter="url(#filter1_di_2084_2422)">
<path d="M54.8818 48.4469C55.3364 47.5156 56.6637 47.5156 57.1183 48.4469L60.7113 55.8065C60.8914 56.1753 61.2417 56.4317 61.6477 56.4917L69.7069 57.6827C70.723 57.8329 71.13 59.0798 70.3982 59.8004L64.5512 65.5585C64.2615 65.8438 64.1294 66.2525 64.1974 66.6533L65.5747 74.7724C65.7475 75.791 64.6757 76.5643 63.7635 76.0793L56.5843 72.262C56.219 72.0678 55.7811 72.0678 55.4158 72.262L48.2366 76.0793C47.3244 76.5643 46.2526 75.791 46.4254 74.7724L47.8027 66.6533C47.8706 66.2525 47.7386 65.8438 47.4489 65.5585L41.6019 59.8004C40.8701 59.0798 41.2771 57.8329 42.2932 57.6827L50.3524 56.4917C50.7584 56.4317 51.1087 56.1753 51.2888 55.8065L54.8818 48.4469Z" fill="url(#paint1_linear_2084_2422)"/>
</g>
<defs>
<filter id="filter0_b_2084_2422" x="-77.7778" y="-77.7778" width="267.556" height="281.118" filterUnits="userSpaceOnUse" color-interpolation-filters="sRGB">
<feFlood flood-opacity="0" result="BackgroundImageFix"/>
<feGaussianBlur in="BackgroundImageFix" stdDeviation="38.8889"/>
<feComposite in2="SourceAlpha" operator="in" result="effect1_backgroundBlur_2084_2422"/>
<feBlend mode="normal" in="SourceGraphic" in2="effect1_backgroundBlur_2084_2422" result="shape"/>
</filter>
<filter id="filter1_di_2084_2422" x="32.2292" y="41.7484" width="47.5415" height="46.4793" filterUnits="userSpaceOnUse" color-interpolation-filters="sRGB">
<feFlood flood-opacity="0" result="BackgroundImageFix"/>
<feColorMatrix in="SourceAlpha" type="matrix" values="0 0 0 0 0 0 0 0 0 0 0 0 0 0 0 0 0 0 127 0" result="hardAlpha"/>
<feOffset dy="3"/>
<feGaussianBlur stdDeviation="4.5"/>
<feComposite in2="hardAlpha" operator="out"/>
<feColorMatrix type="matrix" values="0 0 0 0 1 0 0 0 0 1 0 0 0 0 1 0 0 0 0.2 0"/>
<feBlend mode="normal" in2="BackgroundImageFix" result="effect1_dropShadow_2084_2422"/>
<feBlend mode="normal" in="SourceGraphic" in2="effect1_dropShadow_2084_2422" result="shape"/>
<feColorMatrix in="SourceAlpha" type="matrix" values="0 0 0 0 0 0 0 0 0 0 0 0 0 0 0 0 0 0 127 0" result="hardAlpha"/>
<feOffset/>
<feGaussianBlur stdDeviation="1.24444"/>
<feComposite in2="hardAlpha" operator="arithmetic" k2="-1" k3="1"/>
<feColorMatrix type="matrix" values="0 0 0 0 1 0 0 0 0 1 0 0 0 0 1 0 0 0 1 0"/>
<feBlend mode="normal" in2="shape" result="effect2_innerShadow_2084_2422"/>
</filter>
<linearGradient id="paint0_linear_2084_2422" x1="56" y1="0" x2="56" y2="93.3333" gradientUnits="userSpaceOnUse">
<stop stop-color="#6042FF"/>
<stop offset="1" stop-color="#6042FF" stop-opacity="0"/>
</linearGradient>
<linearGradient id="paint1_linear_2084_2422" x1="49.7778" y1="56.7341" x2="62.8445" y2="77.2674" gradientUnits="userSpaceOnUse">
<stop stop-color="white"/>
<stop offset="1" stop-color="#9A88F5"/>
</linearGradient>
</defs>
</svg>
